<svg width="20" height="18" viewBox="0 0 20 18" fill="none" xmlns="http://www.w3.org/2000/svg">
<path d="M17.8571 7.875H16.7857V5.34375C16.7857 2.39766 13.7411 0 10 0C6.25893 0 3.21429 2.39766 3.21429 5.34375V7.875H2.14286C0.959821 7.875 0 8.63086 0 9.5625V16.3125C0 17.2441 0.959821 18 2.14286 18H17.8571C19.0402 18 20 17.2441 20 16.3125V9.5625C20 8.63086 19.0402 7.875 17.8571 7.875ZM13.2143 7.875H6.78571V5.34375C6.78571 3.94805 8.22768 2.8125 10 2.8125C11.7723 2.8125 13.2143 3.94805 13.2143 5.34375V7.875Z" fill="#5CC11F"/>
</svg>
